<svg xmlns="http://www.w3.org/2000/svg" viewBox="0 0 1200 630" width="1200" height="630">
  <!-- Background -->
  <rect width="1200" height="630" fill="#1a2744"/>

  <!-- Top accent bar -->
  <rect x="0" y="0" width="1200" height="8" fill="#3b82f6"/>

  <!-- Bottom accent bar -->
  <rect x="0" y="622" width="1200" height="8" fill="#3b82f6"/>

  <!-- Left accent vertical bar -->
  <rect x="80" y="60" width="4" height="510" fill="#3b82f6"/>

  <!-- Decorative circle (background element) -->
  <circle cx="1050" cy="315" r="200" fill="#3b82f6" fill-opacity="0.08"/>
  <circle cx="1050" cy="315" r="140" fill="#3b82f6" fill-opacity="0.06"/>

  <!-- Icon area: stylized graduation cap shape using polygons -->
  <g transform="translate(108, 140)">
    <polygon points="60,0 120,30 60,60 0,30" fill="#3b82f6" opacity="0.9"/>
    <rect x="42" y="45" width="4" height="30" fill="#3b82f6" opacity="0.7"/>
    <rect x="94" y="30" width="4" height="20" fill="#3b82f6" opacity="0.5"/>
    <ellipse cx="44" cy="75" rx="10" ry="6" fill="#3b82f6" opacity="0.6"/>
  </g>

  <!-- Site name in English -->
  <text x="108" y="290" font-family="Arial, Helvetica, sans-serif" font-size="78" font-weight="700" fill="#ffffff" letter-spacing="2">EduDX NAVI</text>

  <!-- Site name in Japanese (katakana/simplified) -->
  <text x="112" y="350" font-family="Arial, Helvetica, sans-serif" font-size="32" font-weight="400" fill="#93c5fd" letter-spacing="6">&#x6559;&#x80B2;DX&#x30CA;&#x30D3;</text>

  <!-- Divider line -->
  <line x1="108" y1="380" x2="900" y2="380" stroke="#3b82f6" stroke-width="1.5" opacity="0.5"/>

  <!-- Tag 1: ICT -->
  <rect x="108" y="405" width="220" height="48" rx="6" fill="#3b82f6" fill-opacity="0.25" stroke="#3b82f6" stroke-width="1"/>
  <text x="218" y="435" font-family="Arial, Helvetica, sans-serif" font-size="20" font-weight="600" fill="#93c5fd" text-anchor="middle">ICT in Education</text>

  <!-- Tag 2: AI -->
  <rect x="348" y="405" width="240" height="48" rx="6" fill="#3b82f6" fill-opacity="0.25" stroke="#3b82f6" stroke-width="1"/>
  <text x="468" y="435" font-family="Arial, Helvetica, sans-serif" font-size="20" font-weight="600" fill="#93c5fd" text-anchor="middle">AI School Support</text>

  <!-- Tag 3: Special Needs -->
  <rect x="608" y="405" width="280" height="48" rx="6" fill="#3b82f6" fill-opacity="0.25" stroke="#3b82f6" stroke-width="1"/>
  <text x="748" y="435" font-family="Arial, Helvetica, sans-serif" font-size="20" font-weight="600" fill="#93c5fd" text-anchor="middle">Special Ed. Support</text>

  <!-- Tagline -->
  <text x="108" y="520" font-family="Arial, Helvetica, sans-serif" font-size="22" fill="#cbd5e1" letter-spacing="1">For Teachers &#x2014; Practical knowledge for Digital Transformation</text>

  <!-- URL -->
  <text x="108" y="568" font-family="Arial, Helvetica, sans-serif" font-size="18" fill="#64748b" letter-spacing="1">edu-dx-navi.com</text>
</svg>
